<?xml version="1.0" encoding="UTF-8"?><svg xmlns="http://www.w3.org/2000/svg" width="1200" height="628" viewBox="0 0 1200 628"><rect width="100%" height="100%" fill="#0B1220"/><text x="56" y="118" font-size="44" font-weight="700" font-family="Arial" fill="#E8EEF9">AI 이미지 생성 시 체크리스트</text><line x1="56" y1="142" x2="1144" y2="142" stroke="#22304F" stroke-width="2"/>
      <rect x="56" y="194" width="1088" height="40" rx="14" fill="#121A2B" stroke="#22304F" stroke-width="2"/>
      <circle cx="82" cy="214" r="14" fill="#4F8BFF"/>
      <path d="M 74 214 L 80 220 L 92 202" stroke="#0B1220" stroke-width="5" fill="none" stroke-linecap="round" stroke-linejoin="round"/>
      <text x="114" y="220" font-size="24" font-family="Arial" fill="#E8EEF9">저작권 및 라이선스 확인</text>
    
      <rect x="56" y="240" width="1088" height="40" rx="14" fill="#121A2B" stroke="#22304F" stroke-width="2"/>
      <circle cx="82" cy="260" r="14" fill="#4F8BFF"/>
      <path d="M 74 260 L 80 266 L 92 248" stroke="#0B1220" stroke-width="5" fill="none" stroke-linecap="round" stroke-linejoin="round"/>
      <text x="114" y="266" font-size="24" font-family="Arial" fill="#E8EEF9">생성 모델의 사용 약관 준수</text>
    
      <rect x="56" y="286" width="1088" height="40" rx="14" fill="#121A2B" stroke="#22304F" stroke-width="2"/>
      <circle cx="82" cy="306" r="14" fill="#4F8BFF"/>
      <path d="M 74 306 L 80 312 L 92 294" stroke="#0B1220" stroke-width="5" fill="none" stroke-linecap="round" stroke-linejoin="round"/>
      <text x="114" y="312" font-size="24" font-family="Arial" fill="#E8EEF9">개인 정보 보호 정책 확인</text>
    
      <rect x="56" y="332" width="1088" height="40" rx="14" fill="#121A2B" stroke="#22304F" stroke-width="2"/>
      <circle cx="82" cy="352" r="14" fill="#4F8BFF"/>
      <path d="M 74 352 L 80 358 L 92 340" stroke="#0B1220" stroke-width="5" fill="none" stroke-linecap="round" stroke-linejoin="round"/>
      <text x="114" y="358" font-size="24" font-family="Arial" fill="#E8EEF9">결과물의 상업적 이용 가능성 검토</text>
    
      <rect x="56" y="378" width="1088" height="40" rx="14" fill="#121A2B" stroke="#22304F" stroke-width="2"/>
      <circle cx="82" cy="398" r="14" fill="#4F8BFF"/>
      <path d="M 74 398 L 80 404 L 92 386" stroke="#0B1220" stroke-width="5" fill="none" stroke-linecap="round" stroke-linejoin="round"/>
      <text x="114" y="404" font-size="24" font-family="Arial" fill="#E8EEF9">프롬프트 엔지니어링: 원하는 결과 얻기 위한 명령어 연구</text>
    
      <rect x="56" y="424" width="1088" height="40" rx="14" fill="#121A2B" stroke="#22304F" stroke-width="2"/>
      <circle cx="82" cy="444" r="14" fill="#4F8BFF"/>
      <path d="M 74 444 L 80 450 L 92 432" stroke="#0B1220" stroke-width="5" fill="none" stroke-linecap="round" stroke-linejoin="round"/>
      <text x="114" y="450" font-size="24" font-family="Arial" fill="#E8EEF9">윤리적 문제 고려: 사회적 편견/차별 여부 확인</text>
    <text x="56" y="572" font-size="22" font-family="Arial" fill="#9FB3D1">AI Now Insight</text></svg>